<svg xmlns="http://www.w3.org/2000/svg" viewBox="0 0 630 279">
  <style type="text/css">
    
	.st0{fill-rule:evenodd;clip-rule:evenodd;fill:none;stroke:#D69229;stroke-width:4;stroke-miterlimit:10;}
	.st1{fill:#D69229;}
	.st2{fill:#FFFFFF;}

  </style>
    <path class="st0" d="M233.2 116.6c0 62.4-50.6 113-113 113 -62.4 0-113-50.6-113-113 0-62.4 50.6-113 113-113C182.6 3.6 233.2 54.2 233.2 116.6z"/>
      <path class="st1" d="M138.1 157.1c-12.6 17-27.1 22.8-37.5 22.8 -6.2 0-11.3-6.4-11.3-14.1 0-6 1.7-9.2 4.5-14.7l16.8-33.9H94.8l3.4-3.2h17.3c12.6-8.1 17.5-13.2 33.7-37.7h2.3L130 114h16l-1.3 3.2h-16L106.6 156c-2.6 4.5-4.9 8.1-4.9 11.3 0 2.8 2.8 8.1 5.8 8.1 8.5 0 22.4-11.9 28.5-20 0 0 14.3-18.1 20.4-26.6l1.7 1.5C150.9 141.7 138.1 157.1 138.1 157.1z"/>
      <path class="st1" d="M154.5 188.4c-14.9 0-21.5-7.5-21.5-19.2 0-31.9 27.5-47.9 48.1-47.9 7.2 0 12.8 5.1 12.8 11.1 0 6.4-6.2 12.6-12.8 12.6 -5.1 0-7.7-2.3-7.7-5.5 0-1.5 0.2-4.5 2.1-7.2 2.3 1.9 4.5 2.8 6.2 2.8 1.5 0 6.6-3.4 6.6-7 0-2.6-1.9-4.5-7.2-4.5 -13.6 0-36.2 39.6-36.2 54.3 0 4.9 4.3 8.1 9.6 8.1 18.3 0 48.8-11.9 75.6-48.6l1.7 1.5C207.6 172.8 178.2 188.4 154.5 188.4z"/>
        <path class="st2" d="M22.9 188l-12.1 0.3c-4.7 0.2-6.6 0.6-7.8 2.4 -0.8 1.2-1.2 2.2-1.4 2.8 -0.2 0.6-0.4 1-0.9 1 -0.6 0-0.7-0.4-0.7-1.3 0-1.3 1.5-8.7 1.7-9.3 0.2-1.1 0.5-1.5 1-1.5 0.6 0 1.5 0.8 3.5 1 2.3 0.2 5.4 0.4 8.1 0.4h32c2.6 0 4.4-0.2 5.6-0.4 1.2-0.2 1.9-0.4 2.2-0.4 0.6 0 0.6 0.5 0.6 1.7 0 1.7-0.2 7.3-0.2 9.4 -0.1 0.8-0.2 1.3-0.7 1.3 -0.6 0-0.8-0.4-0.9-1.6l-0.1-0.9c-0.2-2.1-2.3-4.4-9.5-4.5L33 188v33.3c0 7.5 0 13.9 0.4 17.4 0.2 2.3 0.7 4.1 3.2 4.4 1.1 0.2 2.9 0.3 4.1 0.3 0.9 0 1.3 0.3 1.3 0.7 0 0.6-0.6 0.8-1.5 0.8 -5.3 0-10.4-0.2-12.7-0.2 -1.9 0-7 0.2-10.2 0.2 -1.1 0-1.6-0.2-1.6-0.8 0-0.4 0.3-0.7 1.3-0.7 1.2 0 2.2-0.2 2.9-0.3 1.6-0.3 2.1-2.1 2.3-4.5 0.4-3.4 0.4-9.8 0.4-17.3V188z"/>
        <path class="st2" d="M67.9 212.6c0-10.5 0-12.4-0.1-14.6 -0.2-2.3-0.8-3.1-3.1-3.7 -0.6-0.2-1.8-0.2-2.8-0.2 -0.7 0-1.2-0.2-1.2-0.7s0.6-0.7 1.6-0.7c3.7 0 8.2 0.2 9.7 0.2 2.4 0 8.9-0.2 11.1-0.2 4.5 0 9.7 0.4 13.5 2.9 2 1.4 5 4.9 5 9.5 0 5.1-2.9 9.7-9.9 15.2 6.3 7.8 11.3 14 15.6 18.3 4 4 6.5 4.3 7.6 4.5 0.7 0.2 1.1 0.2 1.7 0.2s0.9 0.4 0.9 0.7c0 0.6-0.5 0.7-1.4 0.7h-6.8c-4 0-5.9-0.4-7.8-1.4 -3.1-1.5-5.7-4.8-9.7-10.1 -2.8-3.7-5.8-8.4-6.7-9.4 -0.4-0.4-0.8-0.5-1.3-0.5l-6.4-0.2c-0.3 0-0.6 0.2-0.6 0.6v1c0 6.4 0.1 11.8 0.4 14.7 0.2 2 0.6 3.3 2.8 3.7 1 0.2 2.6 0.2 3.5 0.2 0.6 0 0.9 0.4 0.9 0.7 0 0.5-0.6 0.7-1.5 0.7 -4.1 0-10-0.2-11.1-0.2 -1.4 0-5.9 0.2-8.7 0.2 -0.9 0-1.4-0.2-1.4-0.7 0-0.3 0.2-0.7 1.1-0.7 1.1 0 1.9-0.1 2.5-0.2 1.5-0.3 1.9-1.6 2.1-3.7 0.3-2.9 0.3-8.4 0.3-14.7V212.6zM77 218c0 0.7 0.2 1 0.6 1.2 1.5 0.5 3.6 0.7 5.4 0.7 2.8 0 3.8-0.2 5-1.1 2.2-1.5 4.6-4.5 4.6-10.2 0-9.7-6.6-12.2-10.8-12.2 -1.8 0-3.5 0.1-4.2 0.2 -0.5 0.2-0.6 0.4-0.6 1V218z"/>
        <path class="st2" d="M119.9 212.6c0-10.5 0.1-12.4-0.1-14.6 -0.2-2.4-0.8-3.1-3.1-3.7 -0.6-0.2-1.8-0.2-2.7-0.2 -0.8 0-1.2-0.2-1.2-0.7s0.5-0.7 1.5-0.7c3.8 0 8.6 0.2 10.7 0.2 1.8 0 6.6-0.2 9.1-0.2 1 0 1.5 0.2 1.5 0.7s-0.4 0.7-1.1 0.7c-0.8 0-1.2 0.1-2.1 0.2 -1.9 0.3-2.4 1.3-2.6 3.7 -0.2 2.2-0.2 4.1-0.2 14.6v9.7c0 10.1 1.9 14 5.4 16.7 3.2 2.5 6.5 2.8 9 2.8 3.1 0 6.7-0.9 9.5-3.7 4-3.7 4.1-9.7 4.1-16.8v-8.7c0-10.5-0.1-12.4-0.2-14.6 -0.2-2.3-0.7-3.1-3-3.7 -0.6-0.2-1.8-0.2-2.6-0.2 -0.8 0-1.2-0.2-1.2-0.7s0.5-0.7 1.5-0.7c3.6 0 8.4 0.2 8.5 0.2 0.8 0 5.6-0.2 8.3-0.2 1 0 1.5 0.2 1.5 0.7s-0.4 0.7-1.2 0.7c-0.8 0-1.2 0.1-2.1 0.2 -1.9 0.3-2.4 1.3-2.6 3.7 -0.1 2.2-0.2 4.1-0.2 14.6v7.4c0 7.7-0.8 15.8-6.8 20.8 -5 4.2-10.4 4.9-15 4.9 -3.7 0-11.1-0.2-16.3-4.7 -3.6-3.2-6.5-8.3-6.5-18.2V212.6z"/>
        <path class="st2" d="M187.3 237.1c-7.9-7-10-16.1-10-23.9 0-5.5 1.7-15.1 9.5-22.2 5.8-5.4 13.5-8.6 25.6-8.6 5 0 8 0.3 11.7 0.8 3.1 0.4 5.7 1.1 8.1 1.4 0.9 0.1 1.2 0.5 1.2 1 0 0.6-0.2 1.6-0.4 4.5 -0.2 2.7-0.1 7.1-0.2 8.8 -0.1 1.2-0.2 1.9-1 1.9 -0.7 0-0.8-0.6-0.8-1.8 -0.1-2.5-1.1-5.4-3.2-7.5 -2.7-2.8-9-5-16.4-5 -7 0-11.6 1.8-15.2 5 -5.9 5.4-7.4 13.1-7.4 21 0 19.3 14.6 28.9 25.5 28.9 7.2 0 11.6-0.8 14.8-4.5 1.4-1.5 2.4-3.9 2.7-5.4 0.2-1.3 0.4-1.6 1.1-1.6 0.6 0 0.7 0.6 0.7 1.2 0 1-1 8-1.8 10.8 -0.4 1.4-0.7 1.8-2.1 2.4 -3.2 1.3-9.4 1.9-14.6 1.9C203.9 245.9 194.6 243.5 187.3 237.1z"/>
        <path class="st2" d="M258.7 224.8c0 8.8 0 13.2 1.5 14.5 1.2 1.1 4 1.5 9.5 1.5 3.8 0 6.5-0.1 8.3-1.9 0.9-0.9 1.6-2.8 1.8-4.1 0.1-0.6 0.2-1.1 0.8-1.1 0.5 0 0.6 0.7 0.6 1.5 0 0.8-0.5 5.9-1.1 8 -0.5 1.5-0.8 1.9-4.5 1.9 -5.1 0-9.2-0.1-12.8-0.2 -3.6-0.1-6.6-0.2-9.5-0.2 -0.8 0-2.3 0.1-4 0.1 -1.7 0.1-3.5 0.2-4.9 0.2 -0.9 0-1.4-0.2-1.4-0.7 0-0.3 0.2-0.7 1.1-0.7 1 0 1.9-0.1 2.5-0.2 1.5-0.3 1.9-1.6 2.1-3.7 0.3-2.9 0.3-8.4 0.3-14.7v-12.2c0-10.5 0-12.4-0.1-14.6 -0.2-2.3-0.8-3.1-3.1-3.7 -0.6-0.2-1.5-0.2-2.3-0.2 -0.8 0-1.2-0.2-1.2-0.7s0.5-0.7 1.5-0.7c3.3 0 7.8 0.2 9.8 0.2 1.7 0 7.5-0.2 10.3-0.2 1 0 1.5 0.2 1.5 0.7s-0.4 0.7-1.3 0.7c-0.8 0-1.9 0.1-2.7 0.2 -1.9 0.3-2.5 1.3-2.7 3.7 -0.2 2.2-0.2 4.1-0.2 14.6V224.8z"/>
        <path class="st2" d="M284.4 218.7c0-11.8 8.2-27 29.8-27 18 0 29.1 10 29.1 25.8 0 15.8-11.5 28.2-29.8 28.2C292.8 245.7 284.4 230.9 284.4 218.7zM332.7 220c0-15.2-9.1-24.7-20.6-24.7 -7.9 0-17.2 4.2-17.2 21.3 0 14.2 8.1 25.4 21.5 25.4C321.4 242 332.7 239.6 332.7 220z"/>
        <path class="st2" d="M367 196.9l-10.6 0.2c-4.1 0.1-5.8 0.6-6.9 2.1 -0.7 1-1.1 1.9-1.2 2.4 -0.2 0.6-0.3 0.9-0.8 0.9 -0.5 0-0.6-0.4-0.6-1.1 0-1.1 1.4-7.8 1.5-8.4 0.2-0.9 0.4-1.3 0.8-1.3 0.6 0 1.3 0.6 3.1 0.8 2.1 0.2 4.8 0.3 7.1 0.3h28.9c2.3 0 3.8-0.2 4.9-0.3 1.1-0.2 1.7-0.3 1.9-0.3 0.5 0 0.6 0.4 0.6 1.5 0 1.5-0.2 6.6-0.2 8.4 -0.1 0.7-0.2 1.1-0.6 1.1 -0.6 0-0.7-0.3-0.8-1.4l-0.1-0.7c-0.2-1.8-2-3.9-8.4-4l-9-0.2v27.9c0 6.3 0.1 11.8 0.4 14.8 0.2 1.9 0.6 3.2 2.7 3.6 1 0.2 2.6 0.2 3.6 0.2 0.8 0 1.1 0.4 1.1 0.7 0 0.5-0.6 0.7-1.4 0.7 -4.7 0-9.5-0.2-11.5-0.2 -1.6 0-6.5 0.2-9.3 0.2 -0.9 0-1.4-0.2-1.4-0.7 0-0.3 0.2-0.7 1.1-0.7 1 0 1.9-0.1 2.5-0.2 1.5-0.3 1.9-1.6 2.1-3.7 0.3-2.9 0.3-8.4 0.3-14.7V196.9z"/>
        <path class="st2" d="M445.6 215.1c0.2 0 0.4-0.1 0.4-0.5v-1.5c0-10.5-0.1-13-0.2-15.2 -0.2-2.3-0.8-3.1-3.1-3.7 -0.6-0.2-1.8-0.2-2.7-0.2 -0.8 0-1.2-0.2-1.2-0.7s0.5-0.7 1.5-0.7c3.8 0 8.8 0.2 10.7 0.2 1.7 0 6.4-0.2 9.1-0.2 1.1 0 1.5 0.2 1.5 0.7s-0.5 0.7-1.3 0.7c-0.6 0-1.2 0.1-2.1 0.2 -1.9 0.3-2.4 1.3-2.6 3.7 -0.2 2.2-0.2 4.1-0.2 14.6v12.2c0 6.3 0 11.8 0.3 14.8 0.2 1.9 0.7 3.2 2.8 3.6 1 0.2 2.5 0.2 3.6 0.2 0.7 0 1.1 0.4 1.1 0.7 0 0.5-0.6 0.7-1.5 0.7 -4.6 0-9.3-0.2-11.2-0.2 -1.6 0-6.6 0.2-9.4 0.2 -1 0-1.5-0.2-1.5-0.7 0-0.3 0.3-0.7 1.1-0.7 1.1 0 1.9-0.1 2.6-0.2 1.5-0.3 1.9-1.6 2.1-3.7 0.3-2.9 0.3-8.2 0.3-14.5v-5.3c0-0.2-0.2-0.4-0.4-0.4h-26.8c-0.2 0-0.5 0.1-0.5 0.4v5.3c0 6.3 0.1 11.6 0.4 14.6 0.2 1.9 0.6 3.2 2.7 3.6 1 0.2 2.6 0.2 3.6 0.2 0.8 0 1.1 0.4 1.1 0.7 0 0.5-0.6 0.7-1.5 0.7 -4.6 0-9.5-0.2-11.6-0.2 -1.6 0-6.3 0.2-9.1 0.2 -0.9 0-1.4-0.2-1.4-0.7 0-0.3 0.2-0.7 1.1-0.7 1.1 0 1.9-0.1 2.5-0.2 1.5-0.3 1.9-1.6 2.1-3.7 0.3-2.9 0.3-8.4 0.3-14.7v-12.2c0-10.5 0-12.4-0.1-14.6 -0.2-2.3-0.8-3.1-3.1-3.7 -0.6-0.2-1.8-0.2-2.8-0.2 -0.7 0-1.2-0.2-1.2-0.7s0.6-0.7 1.5-0.7c3.8 0 8.5 0.2 10.4 0.2 1.7 0 6.6-0.2 9.5-0.2 1 0 1.5 0.2 1.5 0.7s-0.4 0.7-1.3 0.7c-0.6 0-1.2 0.1-2 0.2 -1.9 0.3-2.5 1.3-2.7 3.7 -0.2 2.2-0.2 4.7-0.2 15.2v1.5c0 0.4 0.2 0.5 0.5 0.5H445.6z"/>
        <path class="st2" d="M478.8 212.6c0-10.5 0-12.4-0.1-14.6 -0.2-2.3-0.9-3.2-2.4-3.7 -0.8-0.2-1.7-0.3-2.6-0.3 -0.7 0-1.1-0.2-1.1-0.8 0-0.4 0.6-0.6 1.7-0.6 2.7 0 7.5 0.2 9.5 0.2 1.8 0 6.4-0.2 9.1-0.2 0.9 0 1.5 0.2 1.5 0.6 0 0.6-0.4 0.8-1.1 0.8 -0.7 0-1.3 0.1-2.1 0.2 -1.9 0.3-2.5 1.3-2.7 3.7 -0.2 2.2-0.2 4.1-0.2 14.6v12.2c0 6.7 0 12.2 0.3 15.1 0.2 1.9 0.7 2.9 2.8 3.2 1 0.2 2.6 0.2 3.6 0.2 0.8 0 1.1 0.4 1.1 0.7 0 0.5-0.6 0.7-1.4 0.7 -4.7 0-9.5-0.2-11.5-0.2 -1.6 0-6.5 0.2-9.3 0.2 -0.9 0-1.4-0.2-1.4-0.7 0-0.3 0.2-0.7 1.1-0.7 1 0 1.9-0.1 2.5-0.2 1.5-0.3 1.9-1.3 2.1-3.3 0.3-2.8 0.3-8.3 0.3-15V212.6z"/>
        <path class="st2" d="M516.2 235.4c0.2 5.4 1 7 2.4 7.5 1.2 0.4 2.6 0.5 3.7 0.5 0.8 0 1.2 0.3 1.2 0.7 0 0.6-0.6 0.7-1.6 0.7 -4.6 0-7.9-0.2-9.2-0.2 -0.6 0-4 0.2-7.7 0.2 -1 0-1.6-0.1-1.6-0.7 0-0.4 0.5-0.7 1.1-0.7 1 0 2.3-0.1 3.2-0.3 1.9-0.5 2.1-2.4 2.2-8.4l0.6-40.9c0-1.4 0.5-2.4 1.2-2.4 0.9 0 1.9 1.1 3.1 2.3 0.9 0.9 11.6 11.8 21.9 22 4.9 4.8 14.3 14.5 15.4 15.5h0.3l-0.7-30.7c-0.1-4.2-0.7-5.4-2.4-6.1 -1-0.4-2.7-0.4-3.7-0.4 -0.9 0-1.1-0.3-1.1-0.7 0-0.6 0.7-0.7 1.8-0.7 3.7 0 7.5 0.2 9.1 0.2 0.8 0 3.5-0.2 7-0.2 1 0 1.6 0.1 1.6 0.7 0 0.4-0.4 0.7-1.2 0.7 -0.7 0-1.3 0-2.2 0.2 -1.9 0.6-2.5 1.8-2.6 5.7l-0.8 43.5c0 1.5-0.6 2.2-1.1 2.2 -1.2 0-2.2-0.7-2.9-1.5 -4.4-4.1-13.3-12.7-20.8-19.9 -7.8-7.5-15.3-15.8-16.7-17h-0.2L516.2 235.4z"/>
        <path class="st2" d="M622.3 240.2c0 1.9 0 1.9-0.9 2.4 -4.8 2.3-11.8 3.1-17.4 3.1 -17.5 0-32.9-7.9-32.9-27 0-11 5.9-18.7 12.5-22.5 6.8-4 13.2-4.5 19.2-4.5 4.9 0 11.2 0.8 12.6 1.1 1.5 0.2 4 0.6 5.7 0.7 0.8 0.1 1 0.3 1 0.8 0 0.8-0.5 2.7-0.5 11.4 0 1.1-0.4 1.5-1 1.5 -0.5 0-0.6-0.3-0.7-0.9 -0.2-1.5-0.6-3.7-2.4-5.7 -2.1-2.2-7.4-5.3-15.4-5.3 -3.9 0-8.8 0.1-13.7 4.1 -4 3.2-6.6 8.4-6.6 16.8 0 14.8 9.5 25.6 24.7 25.6 1.9 0 3.3 0 5-0.7 1-0.5 1.4-1.2 1.4-2.4v-6.3c0-3.4 0-6-0.1-8.1 -0.1-2.4-0.8-3.1-3.1-3.7 -0.6-0.2-1.8-0.2-2.7-0.2 -0.6 0-1.1-0.3-1.1-0.7 0-0.6 0.6-0.6 1.5-0.6 3.7 0 8.8 0.2 10.9 0.2 2.3 0 6-0.2 8.3-0.2 1 0 1.5 0.1 1.5 0.6 0 0.4-0.4 0.7-0.9 0.7 -0.6 0-1.1 0.1-1.9 0.2 -1.9 0.3-2.7 1.3-2.8 3.7 -0.1 2.1-0.1 4.9-0.1 8.3V240.2z"/>
        <path class="st2" d="M521.6 275.1c0-1 0.7-2.3 2.3-2.3 1.3 0 2.3 0.8 2.3 2.2 0 1.3-0.9 2.4-2.3 2.4C522.3 277.4 521.6 276.2 521.6 275.1z"/>
        <path class="st2" d="M535.9 274.2c-3.6-3.1-4.5-7.1-4.5-10.5 0-2.4 0.9-6.5 4.1-9.7 2.2-2.1 5.5-3.8 11.2-3.8 1.5 0 3.5 0.1 5.3 0.4 1.4 0.3 2.5 0.5 3.7 0.5 0.4 0 0.5 0.2 0.5 0.4 0 0.3-0.1 0.7-0.2 2 0 1.2 0 3.1-0.1 3.6 0 0.5-0.2 0.8-0.4 0.8 -0.2 0-0.3-0.2-0.3-0.8 0-1.4-0.6-2.8-1.5-3.6 -1.3-1.1-4-2-7.2-2 -4.7 0-7 1.3-8.3 2.5 -2.7 2.5-3.3 5.7-3.3 9.3 0 6.8 5.4 12.9 13.2 12.9 2.7 0 4.6-0.2 6-1.7 0.8-0.8 1.3-2.3 1.4-3 0.1-0.4 0.1-0.5 0.4-0.5 0.2 0 0.3 0.2 0.3 0.5 0 0.3-0.5 3.3-0.9 4.6 -0.2 0.7-0.3 0.8-0.9 1 -1.5 0.6-4.3 0.8-6.6 0.8C542.5 278 538.8 276.7 535.9 274.2z"/>
        <path class="st2" d="M575.1 250.2c8.3 0 14.5 5.1 14.5 13.3 0 7.9-5.9 14.5-14.7 14.5 -10 0-14.3-7.6-14.3-14C560.5 258.3 565 250.2 575.1 250.2zM575.9 276.5c3.3 0 9.9-1.8 9.9-12 0-8.5-5.2-13-11-13 -6.1 0-10.5 3.8-10.5 11.6C564.3 271.4 569.3 276.5 575.9 276.5z"/>
        <path class="st2" d="M625.5 273c0.1 1.3 0.4 3.2 1.9 3.7 1 0.3 2 0.3 2.4 0.3 0.2 0 0.3 0.1 0.3 0.3 0 0.2-0.3 0.3-0.7 0.3 -0.8 0-4.9 0-6.2-0.2 -0.9-0.1-1-0.2-1-0.4 0-0.1 0.1-0.2 0.3-0.3 0.2 0 0.2-0.6 0.2-1.3l-1.7-18.1h-0.1l-8.8 18.1c-0.7 1.5-1 1.9-1.3 1.9 -0.3 0-0.5-0.3-1.3-1.6 -1-1.8-3.4-6.3-4.3-8.2 -1.1-2.3-4-8.2-4.7-9.7H600l-1.4 16.1c0 0.5 0 1.2 0 1.8 0 0.5 0.3 0.9 0.9 1 0.6 0.2 1.2 0.2 1.4 0.2 0.1 0 0.3 0.1 0.3 0.3 0 0.2-0.3 0.3-0.7 0.3 -1.4 0-3.1-0.1-3.4-0.1 -0.3 0-2.1 0.1-3.1 0.1 -0.4 0-0.6-0.1-0.6-0.3 0-0.1 0.2-0.3 0.4-0.3 0.3 0 0.5 0 1.1-0.1 1.2-0.2 1.2-1.5 1.4-2.8l2.7-23.2c0-0.4 0.2-0.6 0.4-0.6 0.2 0 0.5 0.1 0.7 0.5l11.1 22.1 10.7-22c0.2-0.3 0.3-0.6 0.6-0.6 0.3 0 0.5 0.3 0.5 1L625.5 273z"/>
</svg>
